<svg width="1200" height="628" viewBox="0 0 1200 628" fill="none" xmlns="http://www.w3.org/2000/svg">
<g clip-path="url(#clip0_1302_13)">
<rect width="1200" height="628" fill="#0F092F"/>
<g opacity="0.57">
<g filter="url(#filter0_f_1302_13)">
<ellipse cx="647.292" cy="319.765" rx="157.072" ry="159.824" fill="#A72C94"/>
</g>
<g style="mix-blend-mode:luminosity" filter="url(#filter1_f_1302_13)">
<ellipse cx="620.254" cy="305.154" rx="107.762" ry="112.39" fill="black" fill-opacity="0.3"/>
</g>
</g>
<g opacity="0.5">
<path d="M326.995 584.657H325.078V596.774H326.995V584.657Z" fill="#626262"/>
<path d="M326.995 608.891H325.078V621.007H326.995V608.891Z" fill="#626262"/>
<path d="M217.716 608.891H215.799V621.007H217.716V608.891Z" fill="#626262"/>
<path d="M217.716 584.657H215.799V596.774H217.716V584.657Z" fill="#626262"/>
<path d="M107.805 584.657H105.888V596.774H107.805V584.657Z" fill="#626262"/>
<path d="M107.805 608.891H105.888V621.007H107.805V608.891Z" fill="#626262"/>
<path d="M186.957 199.453H174.841V201.371H186.957V199.453Z" fill="#626262"/>
<path d="M41.5722 199.453H29.4575V201.371H41.5722V199.453Z" fill="#626262"/>
<path d="M138.497 199.453H126.381V201.371H138.497V199.453Z" fill="#626262"/>
<path d="M332.346 199.453H320.23V201.371H332.346V199.453Z" fill="#626262"/>
<path d="M17.3425 199.453H5.22705V201.371H17.3425V199.453Z" fill="#626262"/>
<path d="M380.8 199.453H368.684V201.371H380.8V199.453Z" fill="#626262"/>
<path d="M211.186 199.453H199.071V201.371H211.186V199.453Z" fill="#626262"/>
<path d="M162.725 199.453H150.609V201.371H162.725V199.453Z" fill="#626262"/>
<path d="M235.421 199.453H223.306V201.371H235.421V199.453Z" fill="#626262"/>
<path d="M259.65 199.453H247.537V201.371H259.65V199.453Z" fill="#626262"/>
<path d="M65.8022 199.453H53.6868V201.371H65.8022V199.453Z" fill="#626262"/>
<path d="M90.0329 199.453H77.9182V201.371H90.0329V199.453Z" fill="#626262"/>
<path d="M114.265 199.453H102.149V201.371H114.265V199.453Z" fill="#626262"/>
<path d="M283.874 199.453H271.758V201.371H283.874V199.453Z" fill="#626262"/>
<path d="M356.571 199.453H344.461V201.371H356.571V199.453Z" fill="#626262"/>
<path d="M308.115 199.453H295.999V201.371H308.115V199.453Z" fill="#626262"/>
<path d="M283.874 308.094H271.758V310.011H283.874V308.094Z" fill="#626262"/>
<path d="M41.5722 308.094H29.4575V310.011H41.5722V308.094Z" fill="#626262"/>
<path d="M65.8022 308.094H53.6868V310.011H65.8022V308.094Z" fill="#626262"/>
<path d="M90.0329 308.094H77.9182V310.011H90.0329V308.094Z" fill="#626262"/>
<path d="M235.421 308.094H223.306V310.011H235.421V308.094Z" fill="#626262"/>
<path d="M259.65 308.094H247.537V310.011H259.65V308.094Z" fill="#626262"/>
<path d="M308.115 308.094H295.999V310.011H308.115V308.094Z" fill="#626262"/>
<path d="M17.3425 308.094H5.22705V310.011H17.3425V308.094Z" fill="#626262"/>
<path d="M380.8 308.094H368.684V310.011H380.8V308.094Z" fill="#626262"/>
<path d="M138.497 308.094H126.381V310.011H138.497V308.094Z" fill="#626262"/>
<path d="M186.957 308.094H174.841V310.011H186.957V308.094Z" fill="#626262"/>
<path d="M211.186 308.094H199.071V310.011H211.186V308.094Z" fill="#626262"/>
<path d="M356.571 308.094H344.461V310.011H356.571V308.094Z" fill="#626262"/>
<path d="M162.725 308.094H150.609V310.011H162.725V308.094Z" fill="#626262"/>
<path d="M320.23 310.01H325.08V314.553H326.997V310.01H332.342V308.093H326.997V302.438H325.08V308.093H320.23V310.01Z" fill="#626262"/>
<path d="M102.149 310.009H105.887V314.552H107.804V310.009H114.265V308.092H107.804V302.437H105.887V308.092H102.149V310.009Z" fill="#626262"/>
<path d="M308.115 416.09H295.999V418.007H308.115V416.09Z" fill="#626262"/>
<path d="M356.571 416.09H344.461V418.007H356.571V416.09Z" fill="#626262"/>
<path d="M380.8 416.09H368.684V418.007H380.8V416.09Z" fill="#626262"/>
<path d="M332.346 416.09H320.23V418.007H332.346V416.09Z" fill="#626262"/>
<path d="M186.957 416.09H174.841V418.007H186.957V416.09Z" fill="#626262"/>
<path d="M162.725 416.09H150.609V418.007H162.725V416.09Z" fill="#626262"/>
<path d="M114.265 416.09H102.149V418.007H114.265V416.09Z" fill="#626262"/>
<path d="M211.186 416.09H199.071V418.007H211.186V416.09Z" fill="#626262"/>
<path d="M259.65 416.09H247.537V418.007H259.65V416.09Z" fill="#626262"/>
<path d="M41.5722 416.09H29.4575V418.007H41.5722V416.09Z" fill="#626262"/>
<path d="M138.497 416.09H126.381V418.007H138.497V416.09Z" fill="#626262"/>
<path d="M283.874 416.09H271.758V418.007H283.874V416.09Z" fill="#626262"/>
<path d="M17.3425 416.09H5.22705V418.007H17.3425V416.09Z" fill="#626262"/>
<path d="M235.421 416.09H223.306V418.007H235.421V416.09Z" fill="#626262"/>
<path d="M65.8022 416.09H53.6868V418.007H65.8022V416.09Z" fill="#626262"/>
<path d="M90.0329 416.09H77.9182V418.007H90.0329V416.09Z" fill="#626262"/>
<path d="M17.3425 525.368H5.22705V527.285H17.3425V525.368Z" fill="#626262"/>
<path d="M283.874 525.368H271.758V527.285H283.874V525.368Z" fill="#626262"/>
<path d="M65.8022 525.368H53.6868V527.285H65.8022V525.368Z" fill="#626262"/>
<path d="M41.5722 525.368H29.4575V527.285H41.5722V525.368Z" fill="#626262"/>
<path d="M138.497 525.368H126.381V527.285H138.497V525.368Z" fill="#626262"/>
<path d="M162.725 525.368H150.609V527.285H162.725V525.368Z" fill="#626262"/>
<path d="M90.0329 525.368H77.9182V527.285H90.0329V525.368Z" fill="#626262"/>
<path d="M186.957 525.368H174.841V527.285H186.957V525.368Z" fill="#626262"/>
<path d="M102.149 527.28H105.887V532.629H107.804V527.28H114.265V525.363H107.804V520.513H105.887V525.363H102.149V527.28Z" fill="#626262"/>
<path d="M259.65 525.368H247.537V527.285H259.65V525.368Z" fill="#626262"/>
<path d="M235.421 525.368H223.306V527.285H235.421V525.368Z" fill="#626262"/>
<path d="M211.186 525.368H199.071V527.285H211.186V525.368Z" fill="#626262"/>
<path d="M308.115 525.368H295.999V527.285H308.115V525.368Z" fill="#626262"/>
<path d="M320.23 527.28H325.08V532.629H326.997V527.28H332.342V525.363H326.997V520.513H325.08V525.363H320.23V527.28Z" fill="#626262"/>
<path d="M380.8 525.368H368.684V527.285H380.8V525.368Z" fill="#626262"/>
<path d="M356.571 525.368H344.461V527.285H356.571V525.368Z" fill="#626262"/>
<path d="M326.995 278.21H325.078V290.324H326.995V278.21Z" fill="#626262"/>
<path d="M326.995 447.821H325.078V459.936H326.995V447.821Z" fill="#626262"/>
<path d="M326.995 229.748H325.078V241.863H326.995V229.748Z" fill="#626262"/>
<path d="M326.995 472.054H325.078V484.17H326.995V472.054Z" fill="#626262"/>
<path d="M326.995 253.978H325.078V266.093H326.995V253.978Z" fill="#626262"/>
<path d="M326.995 496.284H325.078V508.398H326.995V496.284Z" fill="#626262"/>
<path d="M326.995 205.514H325.078V217.63H326.995V205.514Z" fill="#626262"/>
<path d="M326.995 350.899H325.078V363.014H326.995V350.899Z" fill="#626262"/>
<path d="M326.995 399.359H325.078V411.475H326.995V399.359Z" fill="#626262"/>
<path d="M326.995 375.132H325.078V387.248H326.995V375.132Z" fill="#626262"/>
<path d="M326.995 326.668H325.078V338.784H326.995V326.668Z" fill="#626262"/>
<path d="M326.995 181.284H325.078V193.4H326.995V181.284Z" fill="#626262"/>
<path d="M326.995 157.052H325.078V169.168H326.995V157.052Z" fill="#626262"/>
<path d="M326.995 544.742H325.078V556.858H326.995V544.742Z" fill="#626262"/>
<path d="M326.995 568.973H325.078V581.088H326.995V568.973Z" fill="#626262"/>
<path d="M326.995 423.593H325.078V435.709H326.995V423.593Z" fill="#626262"/>
<path d="M217.716 278.21H215.799V290.324H217.716V278.21Z" fill="#626262"/>
<path d="M217.716 375.132H215.799V387.248H217.716V375.132Z" fill="#626262"/>
<path d="M217.716 326.668H215.799V338.784H217.716V326.668Z" fill="#626262"/>
<path d="M217.716 350.899H215.799V363.014H217.716V350.899Z" fill="#626262"/>
<path d="M217.716 302.437H215.799V314.552H217.716V302.437Z" fill="#626262"/>
<path d="M217.716 253.978H215.799V266.093H217.716V253.978Z" fill="#626262"/>
<path d="M217.716 205.514H215.799V217.63H217.716V205.514Z" fill="#626262"/>
<path d="M217.716 229.748H215.799V241.863H217.716V229.748Z" fill="#626262"/>
<path d="M217.716 496.284H215.799V508.398H217.716V496.284Z" fill="#626262"/>
<path d="M217.716 181.284H215.799V193.4H217.716V181.284Z" fill="#626262"/>
<path d="M217.716 472.054H215.799V484.17H217.716V472.054Z" fill="#626262"/>
<path d="M217.716 568.973H215.799V581.088H217.716V568.973Z" fill="#626262"/>
<path d="M217.716 520.513H215.799V532.629H217.716V520.513Z" fill="#626262"/>
<path d="M217.716 544.742H215.799V556.858H217.716V544.742Z" fill="#626262"/>
<path d="M217.716 399.359H215.799V411.475H217.716V399.359Z" fill="#626262"/>
<path d="M217.716 423.593H215.799V435.709H217.716V423.593Z" fill="#626262"/>
<path d="M217.716 447.821H215.799V459.936H217.716V447.821Z" fill="#626262"/>
<path d="M217.716 157.052H215.799V169.168H217.716V157.052Z" fill="#626262"/>
<path d="M107.805 157.052H105.888V169.168H107.805V157.052Z" fill="#626262"/>
<path d="M107.805 181.284H105.888V193.4H107.805V181.284Z" fill="#626262"/>
<path d="M107.805 278.21H105.888V290.324H107.805V278.21Z" fill="#626262"/>
<path d="M107.805 447.821H105.888V459.936H107.805V447.821Z" fill="#626262"/>
<path d="M107.805 472.054H105.888V484.17H107.805V472.054Z" fill="#626262"/>
<path d="M107.805 496.284H105.888V508.398H107.805V496.284Z" fill="#626262"/>
<path d="M107.805 423.593H105.888V435.709H107.805V423.593Z" fill="#626262"/>
<path d="M107.805 544.742H105.888V556.858H107.805V544.742Z" fill="#626262"/>
<path d="M107.805 568.973H105.888V581.088H107.805V568.973Z" fill="#626262"/>
<path d="M107.805 205.514H105.888V217.63H107.805V205.514Z" fill="#626262"/>
<path d="M107.805 253.978H105.888V266.093H107.805V253.978Z" fill="#626262"/>
<path d="M107.805 375.132H105.888V387.248H107.805V375.132Z" fill="#626262"/>
<path d="M107.805 326.668H105.888V338.784H107.805V326.668Z" fill="#626262"/>
<path d="M107.805 229.748H105.888V241.863H107.805V229.748Z" fill="#626262"/>
<path d="M107.805 399.359H105.888V411.475H107.805V399.359Z" fill="#626262"/>
<path d="M107.805 350.899H105.888V363.014H107.805V350.899Z" fill="#626262"/>
<path d="M549.173 584.659H547.256V596.775H549.173V584.659Z" fill="#626262"/>
<path d="M549.173 608.891H547.256V621.007H549.173V608.891Z" fill="#626262"/>
<path d="M439.897 608.891H437.98V621.007H439.897V608.891Z" fill="#626262"/>
<path d="M439.897 584.659H437.98V596.775H439.897V584.659Z" fill="#626262"/>
<path d="M1096.83 584.657H1094.91V596.773H1096.83V584.657Z" fill="#626262"/>
<path d="M1096.83 608.891H1094.91V621.007H1096.83V608.891Z" fill="#626262"/>
<path d="M988.189 608.891H986.272V621.007H988.189V608.891Z" fill="#626262"/>
<path d="M988.189 584.657H986.272V596.773H988.189V584.657Z" fill="#626262"/>
<path d="M879.553 608.891H877.636V621.007H879.553V608.891Z" fill="#626262"/>
<path d="M879.553 584.657H877.636V596.773H879.553V584.657Z" fill="#626262"/>
<path d="M771.557 608.891H769.64V621.007H771.557V608.891Z" fill="#626262"/>
<path d="M771.557 584.659H769.64V596.775H771.557V584.659Z" fill="#626262"/>
<path d="M662.281 584.659H660.364V596.775H662.281V584.659Z" fill="#626262"/>
<path d="M662.281 608.891H660.364V621.007H662.281V608.891Z" fill="#626262"/>
<path d="M409.137 199.453H397.022V201.371H409.137V199.453Z" fill="#626262"/>
<path d="M554.524 199.453H542.409V201.371H554.524V199.453Z" fill="#626262"/>
<path d="M602.981 199.453H590.865V201.371H602.981V199.453Z" fill="#626262"/>
<path d="M433.366 199.453H421.251V201.371H433.366V199.453Z" fill="#626262"/>
<path d="M457.597 199.453H445.481V201.371H457.597V199.453Z" fill="#626262"/>
<path d="M481.824 199.453H469.711V201.371H481.824V199.453Z" fill="#626262"/>
<path d="M506.061 199.453H493.945V201.371H506.061V199.453Z" fill="#626262"/>
<path d="M578.75 199.453H566.64V201.371H578.75V199.453Z" fill="#626262"/>
<path d="M530.291 199.453H518.175V201.371H530.291V199.453Z" fill="#626262"/>
<path d="M506.061 308.094H493.945V310.011H506.061V308.094Z" fill="#626262"/>
<path d="M457.597 308.094H445.481V310.011H457.597V308.094Z" fill="#626262"/>
<path d="M481.824 308.094H469.711V310.011H481.824V308.094Z" fill="#626262"/>
<path d="M530.291 308.094H518.175V310.011H530.291V308.094Z" fill="#626262"/>
<path d="M602.981 308.094H590.865V310.011H602.981V308.094Z" fill="#626262"/>
<path d="M409.137 308.094H397.022V310.011H409.137V308.094Z" fill="#626262"/>
<path d="M433.366 308.094H421.251V310.011H433.366V308.094Z" fill="#626262"/>
<path d="M578.75 308.094H566.64V310.011H578.75V308.094Z" fill="#626262"/>
<path d="M542.409 310.009H547.259V314.552H549.176V310.009H554.524V308.092H549.176V302.437H547.259V308.092H542.409V310.009Z" fill="#626262"/>
<path d="M530.291 416.09H518.175V418.007H530.291V416.09Z" fill="#626262"/>
<path d="M578.75 416.09H566.64V418.007H578.75V416.09Z" fill="#626262"/>
<path d="M602.981 416.09H590.865V418.007H602.981V416.09Z" fill="#626262"/>
<path d="M554.524 416.09H542.409V418.007H554.524V416.09Z" fill="#626262"/>
<path d="M409.137 416.09H397.022V418.007H409.137V416.09Z" fill="#626262"/>
<path d="M433.366 416.09H421.251V418.007H433.366V416.09Z" fill="#626262"/>
<path d="M481.824 416.09H469.711V418.007H481.824V416.09Z" fill="#626262"/>
<path d="M506.061 416.09H493.945V418.007H506.061V416.09Z" fill="#626262"/>
<path d="M457.597 416.09H445.481V418.007H457.597V416.09Z" fill="#626262"/>
<path d="M506.061 525.368H493.945V527.285H506.061V525.368Z" fill="#626262"/>
<path d="M409.137 525.368H397.022V527.285H409.137V525.368Z" fill="#626262"/>
<path d="M481.824 525.368H469.711V527.285H481.824V525.368Z" fill="#626262"/>
<path d="M457.597 525.368H445.481V527.285H457.597V525.368Z" fill="#626262"/>
<path d="M433.366 525.368H421.251V527.285H433.366V525.368Z" fill="#626262"/>
<path d="M530.291 525.368H518.175V527.285H530.291V525.368Z" fill="#626262"/>
<path d="M542.409 527.28H547.259V532.629H549.176V527.28H554.524V525.363H549.176V520.513H547.259V525.363H542.409V527.28Z" fill="#626262"/>
<path d="M602.981 525.368H590.865V527.285H602.981V525.368Z" fill="#626262"/>
<path d="M578.75 525.368H566.64V527.285H578.75V525.368Z" fill="#626262"/>
<path d="M549.173 278.21H547.256V290.324H549.173V278.21Z" fill="#626262"/>
<path d="M549.173 447.821H547.256V459.936H549.173V447.821Z" fill="#626262"/>
<path d="M549.173 229.748H547.256V241.864H549.173V229.748Z" fill="#626262"/>
<path d="M549.173 472.054H547.256V484.17H549.173V472.054Z" fill="#626262"/>
<path d="M549.173 253.978H547.256V266.094H549.173V253.978Z" fill="#626262"/>
<path d="M549.173 496.284H547.256V508.398H549.173V496.284Z" fill="#626262"/>
<path d="M549.173 205.514H547.256V217.63H549.173V205.514Z" fill="#626262"/>
<path d="M549.173 350.899H547.256V363.014H549.173V350.899Z" fill="#626262"/>
<path d="M549.173 399.359H547.256V411.475H549.173V399.359Z" fill="#626262"/>
<path d="M549.173 375.131H547.256V387.246H549.173V375.131Z" fill="#626262"/>
<path d="M549.173 326.669H547.256V338.784H549.173V326.669Z" fill="#626262"/>
<path d="M549.173 181.285H547.256V193.4H549.173V181.285Z" fill="#626262"/>
<path d="M549.173 157.052H547.256V169.168H549.173V157.052Z" fill="#626262"/>
<path d="M549.173 544.742H547.256V556.858H549.173V544.742Z" fill="#626262"/>
<path d="M549.173 568.973H547.256V581.088H549.173V568.973Z" fill="#626262"/>
<path d="M549.173 423.593H547.256V435.708H549.173V423.593Z" fill="#626262"/>
<path d="M439.897 278.21H437.98V290.324H439.897V278.21Z" fill="#626262"/>
<path d="M439.897 375.131H437.98V387.246H439.897V375.131Z" fill="#626262"/>
<path d="M439.897 326.669H437.98V338.784H439.897V326.669Z" fill="#626262"/>
<path d="M439.897 350.899H437.98V363.014H439.897V350.899Z" fill="#626262"/>
<path d="M439.897 302.437H437.98V314.552H439.897V302.437Z" fill="#626262"/>
<path d="M439.897 253.978H437.98V266.094H439.897V253.978Z" fill="#626262"/>
<path d="M439.897 205.514H437.98V217.63H439.897V205.514Z" fill="#626262"/>
<path d="M439.897 229.748H437.98V241.864H439.897V229.748Z" fill="#626262"/>
<path d="M439.897 496.284H437.98V508.398H439.897V496.284Z" fill="#626262"/>
<path d="M439.897 181.285H437.98V193.4H439.897V181.285Z" fill="#626262"/>
<path d="M439.897 472.054H437.98V484.17H439.897V472.054Z" fill="#626262"/>
<path d="M439.897 568.973H437.98V581.088H439.897V568.973Z" fill="#626262"/>
<path d="M439.897 520.513H437.98V532.629H439.897V520.513Z" fill="#626262"/>
<path d="M439.897 544.742H437.98V556.858H439.897V544.742Z" fill="#626262"/>
<path d="M439.897 399.359H437.98V411.475H439.897V399.359Z" fill="#626262"/>
<path d="M439.897 423.593H437.98V435.708H439.897V423.593Z" fill="#626262"/>
<path d="M439.897 447.821H437.98V459.936H439.897V447.821Z" fill="#626262"/>
<path d="M439.897 157.052H437.98V169.168H439.897V157.052Z" fill="#626262"/>
<path d="M836.744 199.453H824.63V201.371H836.744V199.453Z" fill="#626262"/>
<path d="M1175.98 199.453H1163.86V201.371H1175.98V199.453Z" fill="#626262"/>
<path d="M667.132 199.453H655.017V201.371H667.132V199.453Z" fill="#626262"/>
<path d="M1030.59 199.453H1018.48V201.371H1030.59V199.453Z" fill="#626262"/>
<path d="M1127.52 199.453H1115.4V201.371H1127.52V199.453Z" fill="#626262"/>
<path d="M909.439 199.453H897.324V201.371H909.439V199.453Z" fill="#626262"/>
<path d="M691.361 199.453H679.245V201.371H691.361V199.453Z" fill="#626262"/>
<path d="M1006.37 199.453H994.25V201.371H1006.37V199.453Z" fill="#626262"/>
<path d="M1200.21 199.453H1188.09V201.371H1200.21V199.453Z" fill="#626262"/>
<path d="M1151.75 199.453H1139.63V201.371H1151.75V199.453Z" fill="#626262"/>
<path d="M860.976 199.453H848.86V201.371H860.976V199.453Z" fill="#626262"/>
<path d="M885.209 199.453H873.093V201.371H885.209V199.453Z" fill="#626262"/>
<path d="M1054.82 199.453H1042.71V201.371H1054.82V199.453Z" fill="#626262"/>
<path d="M764.056 199.453H751.94V201.371H764.056V199.453Z" fill="#626262"/>
<path d="M982.132 199.453H970.017V201.371H982.132V199.453Z" fill="#626262"/>
<path d="M812.517 199.453H800.401V201.371H812.517V199.453Z" fill="#626262"/>
<path d="M642.901 199.453H630.786V201.371H642.901V199.453Z" fill="#626262"/>
<path d="M1079.05 199.453H1066.94V201.371H1079.05V199.453Z" fill="#626262"/>
<path d="M788.286 199.453H776.17V201.371H788.286V199.453Z" fill="#626262"/>
<path d="M715.592 199.453H703.477V201.371H715.592V199.453Z" fill="#626262"/>
<path d="M957.9 199.453H945.785V201.371H957.9V199.453Z" fill="#626262"/>
<path d="M1103.28 199.453H1091.17V201.371H1103.28V199.453Z" fill="#626262"/>
<path d="M933.671 199.453H921.556V201.371H933.671V199.453Z" fill="#626262"/>
<path d="M739.824 199.453H727.708V201.371H739.824V199.453Z" fill="#626262"/>
<path d="M618.671 199.453H607.007V201.371H618.671V199.453Z" fill="#626262"/>
<path d="M715.592 308.094H703.477V310.011H715.592V308.094Z" fill="#626262"/>
<path d="M1030.59 308.094H1018.48V310.011H1030.59V308.094Z" fill="#626262"/>
<path d="M1054.82 308.094H1042.71V310.011H1054.82V308.094Z" fill="#626262"/>
<path d="M1079.05 308.094H1066.94V310.011H1079.05V308.094Z" fill="#626262"/>
<path d="M788.286 308.094H776.17V310.011H788.286V308.094Z" fill="#626262"/>
<path d="M764.056 308.094H751.94V310.011H764.056V308.094Z" fill="#626262"/>
<path d="M691.361 308.094H679.245V310.011H691.361V308.094Z" fill="#626262"/>
<path d="M739.824 308.094H727.708V310.011H739.824V308.094Z" fill="#626262"/>
<path d="M1006.37 308.094H994.25V310.011H1006.37V308.094Z" fill="#626262"/>
<path d="M1127.52 308.094H1115.4V310.011H1127.52V308.094Z" fill="#626262"/>
<path d="M860.976 308.094H848.86V310.011H860.976V308.094Z" fill="#626262"/>
<path d="M1175.98 308.094H1163.86V310.011H1175.98V308.094Z" fill="#626262"/>
<path d="M1200.21 308.094H1188.09V310.011H1200.21V308.094Z" fill="#626262"/>
<path d="M836.744 308.094H824.63V310.011H836.744V308.094Z" fill="#626262"/>
<path d="M909.439 308.094H897.324V310.011H909.439V308.094Z" fill="#626262"/>
<path d="M1151.75 308.094H1139.63V310.011H1151.75V308.094Z" fill="#626262"/>
<path d="M873.093 310.009H877.636V314.552H879.554V310.009H885.209V308.092H879.554V302.437H877.636V308.092H873.093V310.009Z" fill="#626262"/>
<path d="M618.671 308.094H607.007V310.011H618.671V308.094Z" fill="#626262"/>
<path d="M1091.17 310.009H1094.91V314.552H1096.82V310.009H1103.28V308.092H1096.82V302.437H1094.91V308.092H1091.17V310.009Z" fill="#626262"/>
<path d="M812.517 308.094H800.401V310.011H812.517V308.094Z" fill="#626262"/>
<path d="M957.9 308.094H945.785V310.011H957.9V308.094Z" fill="#626262"/>
<path d="M982.132 308.094H970.017V310.011H982.132V308.094Z" fill="#626262"/>
<path d="M933.671 308.094H921.556V310.011H933.671V308.094Z" fill="#626262"/>
<path d="M642.901 308.094H630.786V310.011H642.901V308.094Z" fill="#626262"/>
<path d="M655.017 310.009H660.366V314.552H662.283V310.009H667.132V308.092H662.283V302.437H660.366V308.092H655.017V310.009Z" fill="#626262"/>
<path d="M642.901 416.09H630.786V418.007H642.901V416.09Z" fill="#626262"/>
<path d="M691.361 416.09H679.245V418.007H691.361V416.09Z" fill="#626262"/>
<path d="M667.132 416.09H655.017V418.007H667.132V416.09Z" fill="#626262"/>
<path d="M618.671 416.09H607.007V418.007H618.671V416.09Z" fill="#626262"/>
<path d="M788.286 416.09H776.17V418.007H788.286V416.09Z" fill="#626262"/>
<path d="M1175.98 416.09H1163.86V418.007H1175.98V416.09Z" fill="#626262"/>
<path d="M1151.75 416.09H1139.63V418.007H1151.75V416.09Z" fill="#626262"/>
<path d="M812.517 416.09H800.401V418.007H812.517V416.09Z" fill="#626262"/>
<path d="M1103.28 416.09H1091.17V418.007H1103.28V416.09Z" fill="#626262"/>
<path d="M715.592 416.09H703.477V418.007H715.592V416.09Z" fill="#626262"/>
<path d="M982.132 416.09H970.017V418.007H982.132V416.09Z" fill="#626262"/>
<path d="M860.976 416.09H848.86V418.007H860.976V416.09Z" fill="#626262"/>
<path d="M933.671 416.09H921.555V418.007H933.671V416.09Z" fill="#626262"/>
<path d="M909.439 416.09H897.324V418.007H909.439V416.09Z" fill="#626262"/>
<path d="M957.9 416.09H945.785V418.007H957.9V416.09Z" fill="#626262"/>
<path d="M836.744 416.09H824.63V418.007H836.744V416.09Z" fill="#626262"/>
<path d="M1200.21 416.09H1188.09V418.007H1200.21V416.09Z" fill="#626262"/>
<path d="M764.056 416.09H751.94V418.007H764.056V416.09Z" fill="#626262"/>
<path d="M1030.59 416.09H1018.48V418.007H1030.59V416.09Z" fill="#626262"/>
<path d="M1127.52 416.09H1115.4V418.007H1127.52V416.09Z" fill="#626262"/>
<path d="M739.824 416.09H727.708V418.007H739.824V416.09Z" fill="#626262"/>
<path d="M1006.37 416.09H994.25V418.007H1006.37V416.09Z" fill="#626262"/>
<path d="M1054.82 416.09H1042.71V418.007H1054.82V416.09Z" fill="#626262"/>
<path d="M1079.05 416.09H1066.94V418.007H1079.05V416.09Z" fill="#626262"/>
<path d="M885.209 416.09H873.093V418.007H885.209V416.09Z" fill="#626262"/>
<path d="M1006.37 525.368H994.25V527.285H1006.37V525.368Z" fill="#626262"/>
<path d="M957.9 525.368H945.785V527.285H957.9V525.368Z" fill="#626262"/>
<path d="M1054.82 525.368H1042.71V527.285H1054.82V525.368Z" fill="#626262"/>
<path d="M1030.59 525.368H1018.48V527.285H1030.59V525.368Z" fill="#626262"/>
<path d="M982.132 525.368H970.017V527.285H982.132V525.368Z" fill="#626262"/>
<path d="M873.093 527.28H877.636V532.629H879.554V527.28H885.209V525.363H879.554V520.513H877.636V525.363H873.093V527.28Z" fill="#626262"/>
<path d="M909.439 525.368H897.324V527.285H909.439V525.368Z" fill="#626262"/>
<path d="M933.671 525.368H921.555V527.285H933.671V525.368Z" fill="#626262"/>
<path d="M1127.52 525.368H1115.4V527.285H1127.52V525.368Z" fill="#626262"/>
<path d="M1151.75 525.368H1139.63V527.285H1151.75V525.368Z" fill="#626262"/>
<path d="M1079.05 525.368H1066.94V527.285H1079.05V525.368Z" fill="#626262"/>
<path d="M1175.98 525.368H1163.86V527.285H1175.98V525.368Z" fill="#626262"/>
<path d="M1091.17 527.28H1094.91V532.629H1096.82V527.28H1103.28V525.363H1096.82V520.513H1094.91V525.363H1091.17V527.28Z" fill="#626262"/>
<path d="M836.744 525.368H824.63V527.285H836.744V525.368Z" fill="#626262"/>
<path d="M1200.21 525.368H1188.09V527.285H1200.21V525.368Z" fill="#626262"/>
<path d="M860.976 525.368H848.86V527.285H860.976V525.368Z" fill="#626262"/>
<path d="M618.671 525.368H607.007V527.285H618.671V525.368Z" fill="#626262"/>
<path d="M642.901 525.368H630.786V527.285H642.901V525.368Z" fill="#626262"/>
<path d="M655.017 527.28H660.366V532.629H662.283V527.28H667.132V525.363H662.283V520.513H660.366V525.363H655.017V527.28Z" fill="#626262"/>
<path d="M812.517 525.368H800.401V527.285H812.517V525.368Z" fill="#626262"/>
<path d="M788.286 525.368H776.17V527.285H788.286V525.368Z" fill="#626262"/>
<path d="M691.361 525.368H679.245V527.285H691.361V525.368Z" fill="#626262"/>
<path d="M739.824 525.368H727.708V527.285H739.824V525.368Z" fill="#626262"/>
<path d="M715.592 525.368H703.477V527.285H715.592V525.368Z" fill="#626262"/>
<path d="M764.056 525.368H751.94V527.285H764.056V525.368Z" fill="#626262"/>
<path d="M1096.83 157.052H1094.91V169.168H1096.83V157.052Z" fill="#626262"/>
<path d="M1096.83 181.285H1094.91V193.4H1096.83V181.285Z" fill="#626262"/>
<path d="M1096.83 278.21H1094.91V290.324H1096.83V278.21Z" fill="#626262"/>
<path d="M1096.83 447.821H1094.91V459.936H1096.83V447.821Z" fill="#626262"/>
<path d="M1096.83 472.054H1094.91V484.17H1096.83V472.054Z" fill="#626262"/>
<path d="M1096.83 496.284H1094.91V508.398H1096.83V496.284Z" fill="#626262"/>
<path d="M1096.83 423.593H1094.91V435.708H1096.83V423.593Z" fill="#626262"/>
<path d="M1096.83 544.742H1094.91V556.858H1096.83V544.742Z" fill="#626262"/>
<path d="M1096.83 568.973H1094.91V581.088H1096.83V568.973Z" fill="#626262"/>
<path d="M1096.83 205.514H1094.91V217.63H1096.83V205.514Z" fill="#626262"/>
<path d="M1096.83 253.978H1094.91V266.094H1096.83V253.978Z" fill="#626262"/>
<path d="M1096.83 375.132H1094.91V387.248H1096.83V375.132Z" fill="#626262"/>
<path d="M1096.83 326.669H1094.91V338.784H1096.83V326.669Z" fill="#626262"/>
<path d="M1096.83 229.748H1094.91V241.864H1096.83V229.748Z" fill="#626262"/>
<path d="M1096.83 399.359H1094.91V411.475H1096.83V399.359Z" fill="#626262"/>
<path d="M1096.83 350.899H1094.91V363.014H1096.83V350.899Z" fill="#626262"/>
<path d="M988.189 253.978H986.272V266.094H988.189V253.978Z" fill="#626262"/>
<path d="M988.189 181.285H986.272V193.4H988.189V181.285Z" fill="#626262"/>
<path d="M988.189 157.052H986.272V169.168H988.189V157.052Z" fill="#626262"/>
<path d="M988.189 472.054H986.272V484.17H988.189V472.054Z" fill="#626262"/>
<path d="M988.189 205.514H986.272V217.63H988.189V205.514Z" fill="#626262"/>
<path d="M988.189 447.821H986.272V459.936H988.189V447.821Z" fill="#626262"/>
<path d="M988.189 544.742H986.272V556.858H988.189V544.742Z" fill="#626262"/>
<path d="M988.189 568.973H986.272V581.088H988.189V568.973Z" fill="#626262"/>
<path d="M988.189 423.593H986.272V435.708H988.189V423.593Z" fill="#626262"/>
<path d="M988.189 520.513H986.272V532.629H988.189V520.513Z" fill="#626262"/>
<path d="M988.189 496.284H986.272V508.398H988.189V496.284Z" fill="#626262"/>
<path d="M988.189 278.21H986.272V290.324H988.189V278.21Z" fill="#626262"/>
<path d="M988.189 229.748H986.272V241.864H988.189V229.748Z" fill="#626262"/>
<path d="M988.189 399.359H986.272V411.475H988.189V399.359Z" fill="#626262"/>
<path d="M988.189 302.437H986.272V314.552H988.189V302.437Z" fill="#626262"/>
<path d="M988.189 326.669H986.272V338.784H988.189V326.669Z" fill="#626262"/>
<path d="M988.189 350.899H986.272V363.014H988.189V350.899Z" fill="#626262"/>
<path d="M988.189 375.132H986.272V387.248H988.189V375.132Z" fill="#626262"/>
<path d="M879.553 157.052H877.636V169.168H879.553V157.052Z" fill="#626262"/>
<path d="M879.553 253.978H877.636V266.094H879.553V253.978Z" fill="#626262"/>
<path d="M879.553 181.285H877.636V193.4H879.553V181.285Z" fill="#626262"/>
<path d="M879.553 568.973H877.636V581.088H879.553V568.973Z" fill="#626262"/>
<path d="M879.553 544.742H877.636V556.858H879.553V544.742Z" fill="#626262"/>
<path d="M879.553 399.359H877.636V411.475H879.553V399.359Z" fill="#626262"/>
<path d="M879.553 229.748H877.636V241.864H879.553V229.748Z" fill="#626262"/>
<path d="M879.553 278.21H877.636V290.324H879.553V278.21Z" fill="#626262"/>
<path d="M879.553 350.899H877.636V363.014H879.553V350.899Z" fill="#626262"/>
<path d="M879.553 375.131H877.636V387.246H879.553V375.131Z" fill="#626262"/>
<path d="M879.553 447.821H877.636V459.936H879.553V447.821Z" fill="#626262"/>
<path d="M879.553 496.284H877.636V508.398H879.553V496.284Z" fill="#626262"/>
<path d="M879.553 423.593H877.636V435.708H879.553V423.593Z" fill="#626262"/>
<path d="M879.553 326.669H877.636V338.784H879.553V326.669Z" fill="#626262"/>
<path d="M879.553 472.054H877.636V484.17H879.553V472.054Z" fill="#626262"/>
<path d="M879.553 205.514H877.636V217.63H879.553V205.514Z" fill="#626262"/>
<path d="M771.557 568.973H769.64V581.088H771.557V568.973Z" fill="#626262"/>
<path d="M771.557 181.285H769.64V193.4H771.557V181.285Z" fill="#626262"/>
<path d="M771.557 157.052H769.64V169.168H771.557V157.052Z" fill="#626262"/>
<path d="M771.557 423.593H769.64V435.708H771.557V423.593Z" fill="#626262"/>
<path d="M771.557 447.821H769.64V459.936H771.557V447.821Z" fill="#626262"/>
<path d="M771.557 399.359H769.64V411.475H771.557V399.359Z" fill="#626262"/>
<path d="M771.557 520.513H769.64V532.629H771.557V520.513Z" fill="#626262"/>
<path d="M771.557 544.742H769.64V556.858H771.557V544.742Z" fill="#626262"/>
<path d="M771.557 496.284H769.64V508.398H771.557V496.284Z" fill="#626262"/>
<path d="M771.557 375.131H769.64V387.246H771.557V375.131Z" fill="#626262"/>
<path d="M771.557 472.054H769.64V484.17H771.557V472.054Z" fill="#626262"/>
<path d="M771.557 229.748H769.64V241.864H771.557V229.748Z" fill="#626262"/>
<path d="M771.557 253.978H769.64V266.094H771.557V253.978Z" fill="#626262"/>
<path d="M771.557 205.514H769.64V217.63H771.557V205.514Z" fill="#626262"/>
<path d="M771.557 302.437H769.64V314.552H771.557V302.437Z" fill="#626262"/>
<path d="M771.557 350.899H769.64V363.014H771.557V350.899Z" fill="#626262"/>
<path d="M771.557 326.669H769.64V338.784H771.557V326.669Z" fill="#626262"/>
<path d="M771.557 278.21H769.64V290.324H771.557V278.21Z" fill="#626262"/>
<path d="M662.281 472.054H660.364V484.17H662.281V472.054Z" fill="#626262"/>
<path d="M662.281 496.284H660.364V508.398H662.281V496.284Z" fill="#626262"/>
<path d="M662.281 326.669H660.364V338.784H662.281V326.669Z" fill="#626262"/>
<path d="M662.281 350.899H660.364V363.014H662.281V350.899Z" fill="#626262"/>
<path d="M662.281 375.131H660.364V387.246H662.281V375.131Z" fill="#626262"/>
<path d="M662.281 399.359H660.364V411.475H662.281V399.359Z" fill="#626262"/>
<path d="M662.281 544.742H660.364V556.858H662.281V544.742Z" fill="#626262"/>
<path d="M662.281 205.514H660.364V217.63H662.281V205.514Z" fill="#626262"/>
<path d="M662.281 447.821H660.364V459.936H662.281V447.821Z" fill="#626262"/>
<path d="M662.281 423.593H660.364V435.708H662.281V423.593Z" fill="#626262"/>
<path d="M662.281 568.973H660.364V581.088H662.281V568.973Z" fill="#626262"/>
<path d="M662.281 157.052H660.364V169.168H662.281V157.052Z" fill="#626262"/>
<path d="M662.281 181.285H660.364V193.4H662.281V181.285Z" fill="#626262"/>
<path d="M662.281 278.21H660.364V290.324H662.281V278.21Z" fill="#626262"/>
<path d="M662.281 253.978H660.364V266.094H662.281V253.978Z" fill="#626262"/>
<path d="M662.281 229.748H660.364V241.864H662.281V229.748Z" fill="#626262"/>
</g>
<rect x="-30.5454" y="-13" width="1303.21" height="428.789" fill="url(#paint0_linear_1302_13)"/>
<rect x="1272.66" y="761.67" width="1303.21" height="428.789" transform="rotate(-180 1272.66 761.67)" fill="url(#paint1_linear_1302_13)"/>
<path d="M291.614 361H887.282M1041.89 267.353H356.616M665.835 229.159V173.706H859.372M665.468 385.605V455.014H373.877" stroke="#6742E5" stroke-width="2.20346"/>
<path d="M520.407 201.616V254.866C520.407 261.762 525.997 267.353 532.893 267.353H556.397M886.548 360.632H968.076C974.972 360.632 980.562 366.223 980.562 373.119V423.431" stroke="#9D4724" stroke-width="2.20346"/>
<path d="M293.818 361.367H182.176" stroke="#A9228B" stroke-width="2.20346"/>
<g filter="url(#filter2_d_1302_13)">
<circle cx="154.281" cy="362.851" r="69.0263" fill="url(#paint2_linear_1302_13)" fill-opacity="0.37" shape-rendering="crispEdges"/>
</g>
<g filter="url(#filter3_d_1302_13)">
<circle cx="154.281" cy="362.85" r="50.8615" fill="url(#paint3_linear_1302_13)" shape-rendering="crispEdges"/>
</g>
<g filter="url(#filter4_d_1302_13)">
<circle cx="154.282" cy="362.851" r="29.0637" fill="#771262" fill-opacity="0.57" shape-rendering="crispEdges"/>
<circle cx="154.282" cy="362.851" r="27.962" stroke="#D31EAD" stroke-width="2.20346" shape-rendering="crispEdges"/>
</g>
<path d="M164.053 351.665H144.055C142.781 351.665 141.748 352.722 141.748 354.025V371.328C141.748 372.631 142.781 373.688 144.055 373.688H164.053C165.327 373.688 166.361 372.631 166.361 371.328V354.025C166.361 352.722 165.327 351.665 164.053 351.665ZM154.054 355.598C154.054 354.728 154.742 354.025 155.593 354.025C156.443 354.025 157.131 354.728 157.131 355.598C157.131 356.468 156.443 357.171 155.593 357.171C154.742 357.171 154.054 356.468 154.054 355.598ZM149.439 355.598C149.439 354.728 150.127 354.025 150.978 354.025C151.828 354.025 152.516 354.728 152.516 355.598C152.516 356.468 151.828 357.171 150.978 357.171C150.127 357.171 149.439 356.468 149.439 355.598ZM144.824 355.598C144.824 354.728 145.512 354.025 146.363 354.025C147.213 354.025 147.901 354.728 147.901 355.598C147.901 356.468 147.213 357.171 146.363 357.171C145.512 357.171 144.824 356.468 144.824 355.598ZM164.053 371.033C164.053 371.196 163.924 371.328 163.765 371.328H144.343C144.185 371.328 144.055 371.196 144.055 371.033V359.531H164.053V371.033Z" fill="#FF1FD0"/>
<g filter="url(#filter5_d_1302_13)">
<circle cx="520.024" cy="173.323" r="69.0263" fill="url(#paint4_linear_1302_13)" fill-opacity="0.37" shape-rendering="crispEdges"/>
</g>
<g filter="url(#filter6_d_1302_13)">
<circle cx="520.024" cy="173.322" r="50.8615" fill="url(#paint5_linear_1302_13)" shape-rendering="crispEdges"/>
</g>
<g filter="url(#filter7_d_1302_13)">
<circle cx="520.025" cy="173.323" r="29.0637" fill="#9A4523" fill-opacity="0.57" shape-rendering="crispEdges"/>
<circle cx="520.025" cy="173.323" r="27.962" stroke="#9A4523" stroke-width="2.20346" shape-rendering="crispEdges"/>
</g>
<path d="M530.014 161.884H510.016C508.742 161.884 507.708 162.94 507.708 164.243V181.546C507.708 182.849 508.742 183.906 510.016 183.906H530.014C531.288 183.906 532.321 182.849 532.321 181.546V164.243C532.321 162.94 531.288 161.884 530.014 161.884ZM520.015 165.816C520.015 164.946 520.702 164.243 521.553 164.243C522.404 164.243 523.091 164.946 523.091 165.816C523.091 166.686 522.404 167.389 521.553 167.389C520.702 167.389 520.015 166.686 520.015 165.816ZM515.4 165.816C515.4 164.946 516.087 164.243 516.938 164.243C517.789 164.243 518.476 164.946 518.476 165.816C518.476 166.686 517.789 167.389 516.938 167.389C516.087 167.389 515.4 166.686 515.4 165.816ZM510.785 165.816C510.785 164.946 511.472 164.243 512.323 164.243C513.174 164.243 513.861 164.946 513.861 165.816C513.861 166.686 513.174 167.389 512.323 167.389C511.472 167.389 510.785 166.686 510.785 165.816ZM530.014 181.251C530.014 181.414 529.884 181.546 529.725 181.546H510.304C510.145 181.546 510.016 181.414 510.016 181.251V169.749H530.014V181.251Z" fill="#FF5D1C"/>
<g filter="url(#filter8_d_1302_13)">
<circle cx="328.214" cy="266.601" r="50.8615" fill="url(#paint6_linear_1302_13)" shape-rendering="crispEdges"/>
</g>
<g filter="url(#filter9_d_1302_13)">
<circle cx="328.215" cy="266.603" r="29.0637" fill="#421EA5" fill-opacity="0.57" shape-rendering="crispEdges"/>
<circle cx="328.215" cy="266.603" r="27.962" stroke="#6742E5" stroke-width="2.20346" shape-rendering="crispEdges"/>
</g>
<path d="M337.763 256.451H318.817C317.61 256.451 316.631 257.445 316.631 258.671V274.957C316.631 276.183 317.61 277.178 318.817 277.178H337.763C338.97 277.178 339.949 276.183 339.949 274.957V258.671C339.949 257.445 338.97 256.451 337.763 256.451ZM328.29 260.152C328.29 259.333 328.941 258.671 329.747 258.671C330.553 258.671 331.205 259.333 331.205 260.152C331.205 260.971 330.553 261.632 329.747 261.632C328.941 261.632 328.29 260.971 328.29 260.152ZM323.918 260.152C323.918 259.333 324.569 258.671 325.375 258.671C326.181 258.671 326.833 259.333 326.833 260.152C326.833 260.971 326.181 261.632 325.375 261.632C324.569 261.632 323.918 260.971 323.918 260.152ZM319.546 260.152C319.546 259.333 320.197 258.671 321.003 258.671C321.809 258.671 322.461 259.333 322.461 260.152C322.461 260.971 321.809 261.632 321.003 261.632C320.197 261.632 319.546 260.971 319.546 260.152ZM337.763 274.679C337.763 274.832 337.64 274.957 337.49 274.957H319.09C318.94 274.957 318.817 274.832 318.817 274.679V263.853H337.763V274.679Z" fill="#9A7CFF"/>
<g filter="url(#filter10_d_1302_13)">
<circle cx="345.107" cy="451.89" r="50.8615" fill="url(#paint7_linear_1302_13)" shape-rendering="crispEdges"/>
</g>
<g filter="url(#filter11_d_1302_13)">
<circle cx="345.108" cy="451.892" r="29.0637" fill="#421EA5" fill-opacity="0.57" shape-rendering="crispEdges"/>
<circle cx="345.108" cy="451.892" r="27.962" stroke="#6742E6" stroke-width="2.20346" shape-rendering="crispEdges"/>
</g>
<path d="M354.604 441.698H335.658C334.451 441.698 333.472 442.692 333.472 443.918V460.204C333.472 461.43 334.451 462.425 335.658 462.425H354.604C355.811 462.425 356.79 461.43 356.79 460.204V443.918C356.79 442.692 355.811 441.698 354.604 441.698ZM345.131 445.399C345.131 444.58 345.782 443.918 346.588 443.918C347.394 443.918 348.046 444.58 348.046 445.399C348.046 446.218 347.394 446.879 346.588 446.879C345.782 446.879 345.131 446.218 345.131 445.399ZM340.759 445.399C340.759 444.58 341.41 443.918 342.216 443.918C343.022 443.918 343.673 444.58 343.673 445.399C343.673 446.218 343.022 446.879 342.216 446.879C341.41 446.879 340.759 446.218 340.759 445.399ZM336.387 445.399C336.387 444.58 337.038 443.918 337.844 443.918C338.65 443.918 339.301 444.58 339.301 445.399C339.301 446.218 338.65 446.879 337.844 446.879C337.038 446.879 336.387 446.218 336.387 445.399ZM354.604 459.926C354.604 460.079 354.481 460.204 354.33 460.204H335.931C335.781 460.204 335.658 460.079 335.658 459.926V449.1H354.604V459.926Z" fill="#9A7CFF"/>
<g filter="url(#filter12_d_1302_13)">
<circle cx="887.719" cy="173.04" r="50.8615" transform="rotate(150 887.719 173.04)" fill="url(#paint8_linear_1302_13)" shape-rendering="crispEdges"/>
</g>
<g filter="url(#filter13_d_1302_13)">
<circle cx="887.717" cy="173.04" r="29.0637" transform="rotate(150 887.717 173.04)" fill="#421EA5" fill-opacity="0.57" shape-rendering="crispEdges"/>
<circle cx="887.717" cy="173.04" r="27.962" transform="rotate(150 887.717 173.04)" stroke="#6742E6" stroke-width="2.20346" shape-rendering="crispEdges"/>
</g>
<path d="M897.391 162.531H878.445C877.238 162.531 876.259 163.526 876.259 164.752V181.038C876.259 182.264 877.238 183.258 878.445 183.258H897.391C898.598 183.258 899.577 182.264 899.577 181.038V164.752C899.577 163.526 898.598 162.531 897.391 162.531ZM887.918 166.233C887.918 165.414 888.569 164.752 889.375 164.752C890.181 164.752 890.833 165.414 890.833 166.233C890.833 167.052 890.181 167.713 889.375 167.713C888.569 167.713 887.918 167.052 887.918 166.233ZM883.546 166.233C883.546 165.414 884.197 164.752 885.003 164.752C885.809 164.752 886.461 165.414 886.461 166.233C886.461 167.052 885.809 167.713 885.003 167.713C884.197 167.713 883.546 167.052 883.546 166.233ZM879.174 166.233C879.174 165.414 879.825 164.752 880.631 164.752C881.437 164.752 882.088 165.414 882.088 166.233C882.088 167.052 881.437 167.713 880.631 167.713C879.825 167.713 879.174 167.052 879.174 166.233ZM897.391 180.76C897.391 180.913 897.268 181.038 897.118 181.038H878.718C878.568 181.038 878.445 180.913 878.445 180.76V169.934H897.391V180.76Z" fill="#9A7CFF"/>
<g filter="url(#filter14_d_1302_13)">
<circle cx="982.016" cy="451.693" r="69.0263" transform="rotate(-90 982.016 451.693)" fill="url(#paint9_linear_1302_13)" fill-opacity="0.37" shape-rendering="crispEdges"/>
</g>
<g filter="url(#filter15_d_1302_13)">
<circle cx="982.014" cy="451.694" r="50.8615" transform="rotate(-90 982.014 451.694)" fill="url(#paint10_linear_1302_13)" shape-rendering="crispEdges"/>
</g>
<g filter="url(#filter16_d_1302_13)">
<circle cx="982.016" cy="451.692" r="29.0637" transform="rotate(-90 982.016 451.692)" fill="#9A4523" fill-opacity="0.57" shape-rendering="crispEdges"/>
<circle cx="982.016" cy="451.692" r="27.962" transform="rotate(-90 982.016 451.692)" stroke="#9A4523" stroke-width="2.20346" shape-rendering="crispEdges"/>
</g>
<path d="M991.836 440.402H971.838C970.564 440.402 969.531 441.459 969.531 442.762V460.065C969.531 461.368 970.564 462.425 971.838 462.425H991.836C993.11 462.425 994.144 461.368 994.144 460.065V442.762C994.144 441.459 993.11 440.402 991.836 440.402ZM981.837 444.335C981.837 443.465 982.525 442.762 983.375 442.762C984.226 442.762 984.914 443.465 984.914 444.335C984.914 445.205 984.226 445.908 983.375 445.908C982.525 445.908 981.837 445.205 981.837 444.335ZM977.222 444.335C977.222 443.465 977.91 442.762 978.76 442.762C979.611 442.762 980.299 443.465 980.299 444.335C980.299 445.205 979.611 445.908 978.76 445.908C977.91 445.908 977.222 445.205 977.222 444.335ZM972.607 444.335C972.607 443.465 973.295 442.762 974.146 442.762C974.996 442.762 975.684 443.465 975.684 444.335C975.684 445.205 974.996 445.908 974.146 445.908C973.295 445.908 972.607 445.205 972.607 444.335ZM991.836 459.77C991.836 459.932 991.706 460.065 991.548 460.065H972.126C971.968 460.065 971.838 459.932 971.838 459.77V448.267H991.836V459.77Z" fill="#FF5D1C"/>
<g filter="url(#filter17_d_1302_13)">
<circle cx="291.247" cy="360.999" r="4.77416" fill="#A22185"/>
</g>
<g filter="url(#filter18_d_1302_13)">
<circle cx="473.4" cy="360.999" r="4.77416" fill="#6742E5"/>
</g>
<g filter="url(#filter19_d_1302_13)">
<circle cx="885.446" cy="360.999" r="4.77416" fill="#9D4724"/>
</g>
<g filter="url(#filter20_d_1302_13)">
<circle cx="987.259" cy="267.72" r="4.77416" fill="#6742E5"/>
</g>
<g filter="url(#filter21_d_1302_13)">
<circle cx="665.835" cy="195.74" r="4.77416" fill="#6742E5"/>
</g>
<g filter="url(#filter22_d_1302_13)">
<circle cx="539.503" cy="455.014" r="4.77416" fill="#6742E5"/>
</g>
<g filter="url(#filter23_d_1302_13)">
<circle cx="555.662" cy="267.72" r="4.77416" fill="#9D4724"/>
</g>
<g filter="url(#filter24_d_1302_13)">
<circle cx="1071.34" cy="266.32" r="50.8615" transform="rotate(150 1071.34 266.32)" fill="url(#paint11_linear_1302_13)" shape-rendering="crispEdges"/>
</g>
<g filter="url(#filter25_d_1302_13)">
<circle cx="1071.34" cy="266.319" r="29.0637" transform="rotate(150 1071.34 266.319)" fill="#421EA5" fill-opacity="0.57" shape-rendering="crispEdges"/>
<circle cx="1071.34" cy="266.319" r="27.962" transform="rotate(150 1071.34 266.319)" stroke="#6742E6" stroke-width="2.20346" shape-rendering="crispEdges"/>
</g>
<path d="M1081.34 255.803H1062.4C1061.19 255.803 1060.21 256.798 1060.21 258.024V274.309C1060.21 275.535 1061.19 276.53 1062.4 276.53H1081.34C1082.55 276.53 1083.53 275.535 1083.53 274.309V258.024C1083.53 256.798 1082.55 255.803 1081.34 255.803ZM1071.87 259.504C1071.87 258.685 1072.52 258.024 1073.33 258.024C1074.13 258.024 1074.78 258.685 1074.78 259.504C1074.78 260.323 1074.13 260.985 1073.33 260.985C1072.52 260.985 1071.87 260.323 1071.87 259.504ZM1067.5 259.504C1067.5 258.685 1068.15 258.024 1068.96 258.024C1069.76 258.024 1070.41 258.685 1070.41 259.504C1070.41 260.323 1069.76 260.985 1068.96 260.985C1068.15 260.985 1067.5 260.323 1067.5 259.504ZM1063.13 259.504C1063.13 258.685 1063.78 258.024 1064.58 258.024C1065.39 258.024 1066.04 258.685 1066.04 259.504C1066.04 260.323 1065.39 260.985 1064.58 260.985C1063.78 260.985 1063.13 260.323 1063.13 259.504ZM1081.34 274.032C1081.34 274.184 1081.22 274.309 1081.07 274.309H1062.67C1062.52 274.309 1062.4 274.184 1062.4 274.032V263.205H1081.34V274.032Z" fill="#9A7CFF"/>
<circle cx="666.202" cy="307.749" r="77.8555" fill="#421EA5" fill-opacity="0.55" stroke="#6742E5" stroke-width="1.46897"/>
<circle opacity="0.93" cx="666.202" cy="307.749" r="50.6795" fill="url(#paint12_linear_1302_13)"/>
<path d="M641.045 325.228L653.645 287.978H663.945L676.546 325.228H668.095L665.595 317.628H651.945L649.445 325.228H641.045ZM654.095 310.878H663.445L657.745 293.278H659.845L654.095 310.878ZM680.417 325.228V287.978H688.167V325.228H680.417Z" fill="white"/>
</g>
<defs>
<filter id="filter0_f_1302_13" x="196.955" y="-133.324" width="900.674" height="906.178" filterUnits="userSpaceOnUse" color-interpolation-filters="sRGB">
<feFlood flood-opacity="0" result="BackgroundImageFix"/>
<feBlend mode="normal" in="SourceGraphic" in2="BackgroundImageFix" result="shape"/>
<feGaussianBlur stdDeviation="146.632" result="effect1_foregroundBlur_1302_13"/>
</filter>
<filter id="filter1_f_1302_13" x="401.423" y="81.6955" width="437.661" height="446.917" filterUnits="userSpaceOnUse" color-interpolation-filters="sRGB">
<feFlood flood-opacity="0" result="BackgroundImageFix"/>
<feBlend mode="normal" in="SourceGraphic" in2="BackgroundImageFix" result="shape"/>
<feGaussianBlur stdDeviation="55.534" result="effect1_foregroundBlur_1302_13"/>
</filter>
<filter id="filter2_d_1302_13" x="78.248" y="286.818" width="152.066" height="152.066" filterUnits="userSpaceOnUse" color-interpolation-filters="sRGB">
<feFlood flood-opacity="0" result="BackgroundImageFix"/>
<feColorMatrix in="SourceAlpha" type="matrix" values="0 0 0 0 0 0 0 0 0 0 0 0 0 0 0 0 0 0 127 0" result="hardAlpha"/>
<feOffset/>
<feGaussianBlur stdDeviation="3.50344"/>
<feComposite in2="hardAlpha" operator="out"/>
<feColorMatrix type="matrix" values="0 0 0 0 0 0 0 0 0 0 0 0 0 0 0 0 0 0 0.25 0"/>
<feBlend mode="normal" in2="BackgroundImageFix" result="effect1_dropShadow_1302_13"/>
<feBlend mode="normal" in="SourceGraphic" in2="effect1_dropShadow_1302_13" result="shape"/>
</filter>
<filter id="filter3_d_1302_13" x="96.4126" y="304.982" width="115.737" height="115.737" filterUnits="userSpaceOnUse" color-interpolation-filters="sRGB">
<feFlood flood-opacity="0" result="BackgroundImageFix"/>
<feColorMatrix in="SourceAlpha" type="matrix" values="0 0 0 0 0 0 0 0 0 0 0 0 0 0 0 0 0 0 127 0" result="hardAlpha"/>
<feOffset/>
<feGaussianBlur stdDeviation="3.50344"/>
<feComposite in2="hardAlpha" operator="out"/>
<feColorMatrix type="matrix" values="0 0 0 0 0 0 0 0 0 0 0 0 0 0 0 0 0 0 0.25 0"/>
<feBlend mode="normal" in2="BackgroundImageFix" result="effect1_dropShadow_1302_13"/>
<feBlend mode="normal" in="SourceGraphic" in2="effect1_dropShadow_1302_13" result="shape"/>
</filter>
<filter id="filter4_d_1302_13" x="122.678" y="331.248" width="63.2074" height="63.2073" filterUnits="userSpaceOnUse" color-interpolation-filters="sRGB">
<feFlood flood-opacity="0" result="BackgroundImageFix"/>
<feColorMatrix in="SourceAlpha" type="matrix" values="0 0 0 0 0 0 0 0 0 0 0 0 0 0 0 0 0 0 127 0" result="hardAlpha"/>
<feOffset/>
<feGaussianBlur stdDeviation="1.27"/>
<feComposite in2="hardAlpha" operator="out"/>
<feColorMatrix type="matrix" values="0 0 0 0 0 0 0 0 0 0 0 0 0 0 0 0 0 0 0.25 0"/>
<feBlend mode="normal" in2="BackgroundImageFix" result="effect1_dropShadow_1302_13"/>
<feBlend mode="normal" in="SourceGraphic" in2="effect1_dropShadow_1302_13" result="shape"/>
</filter>
<filter id="filter5_d_1302_13" x="443.991" y="97.2899" width="152.066" height="152.066" filterUnits="userSpaceOnUse" color-interpolation-filters="sRGB">
<feFlood flood-opacity="0" result="BackgroundImageFix"/>
<feColorMatrix in="SourceAlpha" type="matrix" values="0 0 0 0 0 0 0 0 0 0 0 0 0 0 0 0 0 0 127 0" result="hardAlpha"/>
<feOffset/>
<feGaussianBlur stdDeviation="3.50344"/>
<feComposite in2="hardAlpha" operator="out"/>
<feColorMatrix type="matrix" values="0 0 0 0 0 0 0 0 0 0 0 0 0 0 0 0 0 0 0.25 0"/>
<feBlend mode="normal" in2="BackgroundImageFix" result="effect1_dropShadow_1302_13"/>
<feBlend mode="normal" in="SourceGraphic" in2="effect1_dropShadow_1302_13" result="shape"/>
</filter>
<filter id="filter6_d_1302_13" x="462.155" y="115.453" width="115.737" height="115.737" filterUnits="userSpaceOnUse" color-interpolation-filters="sRGB">
<feFlood flood-opacity="0" result="BackgroundImageFix"/>
<feColorMatrix in="SourceAlpha" type="matrix" values="0 0 0 0 0 0 0 0 0 0 0 0 0 0 0 0 0 0 127 0" result="hardAlpha"/>
<feOffset/>
<feGaussianBlur stdDeviation="3.50344"/>
<feComposite in2="hardAlpha" operator="out"/>
<feColorMatrix type="matrix" values="0 0 0 0 0 0 0 0 0 0 0 0 0 0 0 0 0 0 0.25 0"/>
<feBlend mode="normal" in2="BackgroundImageFix" result="effect1_dropShadow_1302_13"/>
<feBlend mode="normal" in="SourceGraphic" in2="effect1_dropShadow_1302_13" result="shape"/>
</filter>
<filter id="filter7_d_1302_13" x="488.421" y="141.72" width="63.2074" height="63.2073" filterUnits="userSpaceOnUse" color-interpolation-filters="sRGB">
<feFlood flood-opacity="0" result="BackgroundImageFix"/>
<feColorMatrix in="SourceAlpha" type="matrix" values="0 0 0 0 0 0 0 0 0 0 0 0 0 0 0 0 0 0 127 0" result="hardAlpha"/>
<feOffset/>
<feGaussianBlur stdDeviation="1.27"/>
<feComposite in2="hardAlpha" operator="out"/>
<feColorMatrix type="matrix" values="0 0 0 0 0 0 0 0 0 0 0 0 0 0 0 0 0 0 0.25 0"/>
<feBlend mode="normal" in2="BackgroundImageFix" result="effect1_dropShadow_1302_13"/>
<feBlend mode="normal" in="SourceGraphic" in2="effect1_dropShadow_1302_13" result="shape"/>
</filter>
<filter id="filter8_d_1302_13" x="270.345" y="208.733" width="115.737" height="115.737" filterUnits="userSpaceOnUse" color-interpolation-filters="sRGB">
<feFlood flood-opacity="0" result="BackgroundImageFix"/>
<feColorMatrix in="SourceAlpha" type="matrix" values="0 0 0 0 0 0 0 0 0 0 0 0 0 0 0 0 0 0 127 0" result="hardAlpha"/>
<feOffset/>
<feGaussianBlur stdDeviation="3.50344"/>
<feComposite in2="hardAlpha" operator="out"/>
<feColorMatrix type="matrix" values="0 0 0 0 0 0 0 0 0 0 0 0 0 0 0 0 0 0 0.25 0"/>
<feBlend mode="normal" in2="BackgroundImageFix" result="effect1_dropShadow_1302_13"/>
<feBlend mode="normal" in="SourceGraphic" in2="effect1_dropShadow_1302_13" result="shape"/>
</filter>
<filter id="filter9_d_1302_13" x="296.611" y="234.999" width="63.2074" height="63.2073" filterUnits="userSpaceOnUse" color-interpolation-filters="sRGB">
<feFlood flood-opacity="0" result="BackgroundImageFix"/>
<feColorMatrix in="SourceAlpha" type="matrix" values="0 0 0 0 0 0 0 0 0 0 0 0 0 0 0 0 0 0 127 0" result="hardAlpha"/>
<feOffset/>
<feGaussianBlur stdDeviation="1.27"/>
<feComposite in2="hardAlpha" operator="out"/>
<feColorMatrix type="matrix" values="0 0 0 0 0 0 0 0 0 0 0 0 0 0 0 0 0 0 0.25 0"/>
<feBlend mode="normal" in2="BackgroundImageFix" result="effect1_dropShadow_1302_13"/>
<feBlend mode="normal" in="SourceGraphic" in2="effect1_dropShadow_1302_13" result="shape"/>
</filter>
<filter id="filter10_d_1302_13" x="287.239" y="394.022" width="115.737" height="115.737" filterUnits="userSpaceOnUse" color-interpolation-filters="sRGB">
<feFlood flood-opacity="0" result="BackgroundImageFix"/>
<feColorMatrix in="SourceAlpha" type="matrix" values="0 0 0 0 0 0 0 0 0 0 0 0 0 0 0 0 0 0 127 0" result="hardAlpha"/>
<feOffset/>
<feGaussianBlur stdDeviation="3.50344"/>
<feComposite in2="hardAlpha" operator="out"/>
<feColorMatrix type="matrix" values="0 0 0 0 0 0 0 0 0 0 0 0 0 0 0 0 0 0 0.25 0"/>
<feBlend mode="normal" in2="BackgroundImageFix" result="effect1_dropShadow_1302_13"/>
<feBlend mode="normal" in="SourceGraphic" in2="effect1_dropShadow_1302_13" result="shape"/>
</filter>
<filter id="filter11_d_1302_13" x="313.504" y="420.288" width="63.2074" height="63.2073" filterUnits="userSpaceOnUse" color-interpolation-filters="sRGB">
<feFlood flood-opacity="0" result="BackgroundImageFix"/>
<feColorMatrix in="SourceAlpha" type="matrix" values="0 0 0 0 0 0 0 0 0 0 0 0 0 0 0 0 0 0 127 0" result="hardAlpha"/>
<feOffset/>
<feGaussianBlur stdDeviation="1.27"/>
<feComposite in2="hardAlpha" operator="out"/>
<feColorMatrix type="matrix" values="0 0 0 0 0 0 0 0 0 0 0 0 0 0 0 0 0 0 0.25 0"/>
<feBlend mode="normal" in2="BackgroundImageFix" result="effect1_dropShadow_1302_13"/>
<feBlend mode="normal" in="SourceGraphic" in2="effect1_dropShadow_1302_13" result="shape"/>
</filter>
<filter id="filter12_d_1302_13" x="829.842" y="115.163" width="115.754" height="115.754" filterUnits="userSpaceOnUse" color-interpolation-filters="sRGB">
<feFlood flood-opacity="0" result="BackgroundImageFix"/>
<feColorMatrix in="SourceAlpha" type="matrix" values="0 0 0 0 0 0 0 0 0 0 0 0 0 0 0 0 0 0 127 0" result="hardAlpha"/>
<feOffset/>
<feGaussianBlur stdDeviation="3.50344"/>
<feComposite in2="hardAlpha" operator="out"/>
<feColorMatrix type="matrix" values="0 0 0 0 0 0 0 0 0 0 0 0 0 0 0 0 0 0 0.25 0"/>
<feBlend mode="normal" in2="BackgroundImageFix" result="effect1_dropShadow_1302_13"/>
<feBlend mode="normal" in="SourceGraphic" in2="effect1_dropShadow_1302_13" result="shape"/>
</filter>
<filter id="filter13_d_1302_13" x="856.109" y="141.431" width="63.2169" height="63.2171" filterUnits="userSpaceOnUse" color-interpolation-filters="sRGB">
<feFlood flood-opacity="0" result="BackgroundImageFix"/>
<feColorMatrix in="SourceAlpha" type="matrix" values="0 0 0 0 0 0 0 0 0 0 0 0 0 0 0 0 0 0 127 0" result="hardAlpha"/>
<feOffset/>
<feGaussianBlur stdDeviation="1.27"/>
<feComposite in2="hardAlpha" operator="out"/>
<feColorMatrix type="matrix" values="0 0 0 0 0 0 0 0 0 0 0 0 0 0 0 0 0 0 0.25 0"/>
<feBlend mode="normal" in2="BackgroundImageFix" result="effect1_dropShadow_1302_13"/>
<feBlend mode="normal" in="SourceGraphic" in2="effect1_dropShadow_1302_13" result="shape"/>
</filter>
<filter id="filter14_d_1302_13" x="905.983" y="375.66" width="152.066" height="152.066" filterUnits="userSpaceOnUse" color-interpolation-filters="sRGB">
<feFlood flood-opacity="0" result="BackgroundImageFix"/>
<feColorMatrix in="SourceAlpha" type="matrix" values="0 0 0 0 0 0 0 0 0 0 0 0 0 0 0 0 0 0 127 0" result="hardAlpha"/>
<feOffset/>
<feGaussianBlur stdDeviation="3.50344"/>
<feComposite in2="hardAlpha" operator="out"/>
<feColorMatrix type="matrix" values="0 0 0 0 0 0 0 0 0 0 0 0 0 0 0 0 0 0 0.25 0"/>
<feBlend mode="normal" in2="BackgroundImageFix" result="effect1_dropShadow_1302_13"/>
<feBlend mode="normal" in="SourceGraphic" in2="effect1_dropShadow_1302_13" result="shape"/>
</filter>
<filter id="filter15_d_1302_13" x="924.146" y="393.825" width="115.737" height="115.737" filterUnits="userSpaceOnUse" color-interpolation-filters="sRGB">
<feFlood flood-opacity="0" result="BackgroundImageFix"/>
<feColorMatrix in="SourceAlpha" type="matrix" values="0 0 0 0 0 0 0 0 0 0 0 0 0 0 0 0 0 0 127 0" result="hardAlpha"/>
<feOffset/>
<feGaussianBlur stdDeviation="3.50344"/>
<feComposite in2="hardAlpha" operator="out"/>
<feColorMatrix type="matrix" values="0 0 0 0 0 0 0 0 0 0 0 0 0 0 0 0 0 0 0.25 0"/>
<feBlend mode="normal" in2="BackgroundImageFix" result="effect1_dropShadow_1302_13"/>
<feBlend mode="normal" in="SourceGraphic" in2="effect1_dropShadow_1302_13" result="shape"/>
</filter>
<filter id="filter16_d_1302_13" x="950.412" y="420.088" width="63.2074" height="63.2073" filterUnits="userSpaceOnUse" color-interpolation-filters="sRGB">
<feFlood flood-opacity="0" result="BackgroundImageFix"/>
<feColorMatrix in="SourceAlpha" type="matrix" values="0 0 0 0 0 0 0 0 0 0 0 0 0 0 0 0 0 0 127 0" result="hardAlpha"/>
<feOffset/>
<feGaussianBlur stdDeviation="1.27"/>
<feComposite in2="hardAlpha" operator="out"/>
<feColorMatrix type="matrix" values="0 0 0 0 0 0 0 0 0 0 0 0 0 0 0 0 0 0 0.25 0"/>
<feBlend mode="normal" in2="BackgroundImageFix" result="effect1_dropShadow_1302_13"/>
<feBlend mode="normal" in="SourceGraphic" in2="effect1_dropShadow_1302_13" result="shape"/>
</filter>
<filter id="filter17_d_1302_13" x="283.933" y="353.685" width="14.6283" height="14.6283" filterUnits="userSpaceOnUse" color-interpolation-filters="sRGB">
<feFlood flood-opacity="0" result="BackgroundImageFix"/>
<feColorMatrix in="SourceAlpha" type="matrix" values="0 0 0 0 0 0 0 0 0 0 0 0 0 0 0 0 0 0 127 0" result="hardAlpha"/>
<feOffset/>
<feGaussianBlur stdDeviation="1.27"/>
<feComposite in2="hardAlpha" operator="out"/>
<feColorMatrix type="matrix" values="0 0 0 0 0 0 0 0 0 0 0 0 0 0 0 0 0 0 0.25 0"/>
<feBlend mode="normal" in2="BackgroundImageFix" result="effect1_dropShadow_1302_13"/>
<feBlend mode="normal" in="SourceGraphic" in2="effect1_dropShadow_1302_13" result="shape"/>
</filter>
<filter id="filter18_d_1302_13" x="466.085" y="353.685" width="14.6283" height="14.6283" filterUnits="userSpaceOnUse" color-interpolation-filters="sRGB">
<feFlood flood-opacity="0" result="BackgroundImageFix"/>
<feColorMatrix in="SourceAlpha" type="matrix" values="0 0 0 0 0 0 0 0 0 0 0 0 0 0 0 0 0 0 127 0" result="hardAlpha"/>
<feOffset/>
<feGaussianBlur stdDeviation="1.27"/>
<feComposite in2="hardAlpha" operator="out"/>
<feColorMatrix type="matrix" values="0 0 0 0 0 0 0 0 0 0 0 0 0 0 0 0 0 0 0.25 0"/>
<feBlend mode="normal" in2="BackgroundImageFix" result="effect1_dropShadow_1302_13"/>
<feBlend mode="normal" in="SourceGraphic" in2="effect1_dropShadow_1302_13" result="shape"/>
</filter>
<filter id="filter19_d_1302_13" x="878.132" y="353.685" width="14.6283" height="14.6283" filterUnits="userSpaceOnUse" color-interpolation-filters="sRGB">
<feFlood flood-opacity="0" result="BackgroundImageFix"/>
<feColorMatrix in="SourceAlpha" type="matrix" values="0 0 0 0 0 0 0 0 0 0 0 0 0 0 0 0 0 0 127 0" result="hardAlpha"/>
<feOffset/>
<feGaussianBlur stdDeviation="1.27"/>
<feComposite in2="hardAlpha" operator="out"/>
<feColorMatrix type="matrix" values="0 0 0 0 0 0 0 0 0 0 0 0 0 0 0 0 0 0 0.25 0"/>
<feBlend mode="normal" in2="BackgroundImageFix" result="effect1_dropShadow_1302_13"/>
<feBlend mode="normal" in="SourceGraphic" in2="effect1_dropShadow_1302_13" result="shape"/>
</filter>
<filter id="filter20_d_1302_13" x="979.945" y="260.405" width="14.6283" height="14.6283" filterUnits="userSpaceOnUse" color-interpolation-filters="sRGB">
<feFlood flood-opacity="0" result="BackgroundImageFix"/>
<feColorMatrix in="SourceAlpha" type="matrix" values="0 0 0 0 0 0 0 0 0 0 0 0 0 0 0 0 0 0 127 0" result="hardAlpha"/>
<feOffset/>
<feGaussianBlur stdDeviation="1.27"/>
<feComposite in2="hardAlpha" operator="out"/>
<feColorMatrix type="matrix" values="0 0 0 0 0 0 0 0 0 0 0 0 0 0 0 0 0 0 0.25 0"/>
<feBlend mode="normal" in2="BackgroundImageFix" result="effect1_dropShadow_1302_13"/>
<feBlend mode="normal" in="SourceGraphic" in2="effect1_dropShadow_1302_13" result="shape"/>
</filter>
<filter id="filter21_d_1302_13" x="658.521" y="188.426" width="14.6283" height="14.6283" filterUnits="userSpaceOnUse" color-interpolation-filters="sRGB">
<feFlood flood-opacity="0" result="BackgroundImageFix"/>
<feColorMatrix in="SourceAlpha" type="matrix" values="0 0 0 0 0 0 0 0 0 0 0 0 0 0 0 0 0 0 127 0" result="hardAlpha"/>
<feOffset/>
<feGaussianBlur stdDeviation="1.27"/>
<feComposite in2="hardAlpha" operator="out"/>
<feColorMatrix type="matrix" values="0 0 0 0 0 0 0 0 0 0 0 0 0 0 0 0 0 0 0.25 0"/>
<feBlend mode="normal" in2="BackgroundImageFix" result="effect1_dropShadow_1302_13"/>
<feBlend mode="normal" in="SourceGraphic" in2="effect1_dropShadow_1302_13" result="shape"/>
</filter>
<filter id="filter22_d_1302_13" x="532.189" y="447.7" width="14.6283" height="14.6283" filterUnits="userSpaceOnUse" color-interpolation-filters="sRGB">
<feFlood flood-opacity="0" result="BackgroundImageFix"/>
<feColorMatrix in="SourceAlpha" type="matrix" values="0 0 0 0 0 0 0 0 0 0 0 0 0 0 0 0 0 0 127 0" result="hardAlpha"/>
<feOffset/>
<feGaussianBlur stdDeviation="1.27"/>
<feComposite in2="hardAlpha" operator="out"/>
<feColorMatrix type="matrix" values="0 0 0 0 0 0 0 0 0 0 0 0 0 0 0 0 0 0 0.25 0"/>
<feBlend mode="normal" in2="BackgroundImageFix" result="effect1_dropShadow_1302_13"/>
<feBlend mode="normal" in="SourceGraphic" in2="effect1_dropShadow_1302_13" result="shape"/>
</filter>
<filter id="filter23_d_1302_13" x="548.348" y="260.406" width="14.6283" height="14.6283" filterUnits="userSpaceOnUse" color-interpolation-filters="sRGB">
<feFlood flood-opacity="0" result="BackgroundImageFix"/>
<feColorMatrix in="SourceAlpha" type="matrix" values="0 0 0 0 0 0 0 0 0 0 0 0 0 0 0 0 0 0 127 0" result="hardAlpha"/>
<feOffset/>
<feGaussianBlur stdDeviation="1.27"/>
<feComposite in2="hardAlpha" operator="out"/>
<feColorMatrix type="matrix" values="0 0 0 0 0 0 0 0 0 0 0 0 0 0 0 0 0 0 0.25 0"/>
<feBlend mode="normal" in2="BackgroundImageFix" result="effect1_dropShadow_1302_13"/>
<feBlend mode="normal" in="SourceGraphic" in2="effect1_dropShadow_1302_13" result="shape"/>
</filter>
<filter id="filter24_d_1302_13" x="1013.46" y="208.443" width="115.754" height="115.754" filterUnits="userSpaceOnUse" color-interpolation-filters="sRGB">
<feFlood flood-opacity="0" result="BackgroundImageFix"/>
<feColorMatrix in="SourceAlpha" type="matrix" values="0 0 0 0 0 0 0 0 0 0 0 0 0 0 0 0 0 0 127 0" result="hardAlpha"/>
<feOffset/>
<feGaussianBlur stdDeviation="3.50344"/>
<feComposite in2="hardAlpha" operator="out"/>
<feColorMatrix type="matrix" values="0 0 0 0 0 0 0 0 0 0 0 0 0 0 0 0 0 0 0.25 0"/>
<feBlend mode="normal" in2="BackgroundImageFix" result="effect1_dropShadow_1302_13"/>
<feBlend mode="normal" in="SourceGraphic" in2="effect1_dropShadow_1302_13" result="shape"/>
</filter>
<filter id="filter25_d_1302_13" x="1039.73" y="234.711" width="63.2169" height="63.2171" filterUnits="userSpaceOnUse" color-interpolation-filters="sRGB">
<feFlood flood-opacity="0" result="BackgroundImageFix"/>
<feColorMatrix in="SourceAlpha" type="matrix" values="0 0 0 0 0 0 0 0 0 0 0 0 0 0 0 0 0 0 127 0" result="hardAlpha"/>
<feOffset/>
<feGaussianBlur stdDeviation="1.27"/>
<feComposite in2="hardAlpha" operator="out"/>
<feColorMatrix type="matrix" values="0 0 0 0 0 0 0 0 0 0 0 0 0 0 0 0 0 0 0.25 0"/>
<feBlend mode="normal" in2="BackgroundImageFix" result="effect1_dropShadow_1302_13"/>
<feBlend mode="normal" in="SourceGraphic" in2="effect1_dropShadow_1302_13" result="shape"/>
</filter>
<linearGradient id="paint0_linear_1302_13" x1="621.058" y1="-13" x2="621.058" y2="415.789" gradientUnits="userSpaceOnUse">
<stop/>
<stop offset="1" stop-opacity="0"/>
</linearGradient>
<linearGradient id="paint1_linear_1302_13" x1="1924.27" y1="761.67" x2="1924.27" y2="1190.46" gradientUnits="userSpaceOnUse">
<stop/>
<stop offset="1" stop-opacity="0"/>
</linearGradient>
<linearGradient id="paint2_linear_1302_13" x1="82.7897" y1="360.386" x2="231.86" y2="372.626" gradientUnits="userSpaceOnUse">
<stop stop-color="#99187F"/>
<stop offset="1" stop-opacity="0"/>
</linearGradient>
<linearGradient id="paint3_linear_1302_13" x1="101.603" y1="361.033" x2="208.86" y2="357.677" gradientUnits="userSpaceOnUse">
<stop stop-color="#6F165E"/>
<stop offset="1" stop-opacity="0"/>
</linearGradient>
<linearGradient id="paint4_linear_1302_13" x1="448.533" y1="170.858" x2="597.603" y2="183.098" gradientUnits="userSpaceOnUse">
<stop stop-color="#73331A"/>
<stop offset="1" stop-opacity="0"/>
</linearGradient>
<linearGradient id="paint5_linear_1302_13" x1="467.346" y1="171.505" x2="574.603" y2="168.149" gradientUnits="userSpaceOnUse">
<stop stop-color="#73331A"/>
<stop offset="1" stop-opacity="0"/>
</linearGradient>
<linearGradient id="paint6_linear_1302_13" x1="275.536" y1="264.785" x2="382.792" y2="261.428" gradientUnits="userSpaceOnUse">
<stop stop-color="#331470"/>
<stop offset="1" stop-opacity="0"/>
</linearGradient>
<linearGradient id="paint7_linear_1302_13" x1="292.429" y1="450.074" x2="399.686" y2="446.717" gradientUnits="userSpaceOnUse">
<stop stop-color="#331470"/>
<stop offset="1" stop-opacity="0"/>
</linearGradient>
<linearGradient id="paint8_linear_1302_13" x1="835.041" y1="171.224" x2="942.297" y2="167.867" gradientUnits="userSpaceOnUse">
<stop stop-color="#331470"/>
<stop offset="1" stop-opacity="0"/>
</linearGradient>
<linearGradient id="paint9_linear_1302_13" x1="910.524" y1="449.228" x2="1059.59" y2="461.468" gradientUnits="userSpaceOnUse">
<stop stop-color="#73331A"/>
<stop offset="1" stop-opacity="0"/>
</linearGradient>
<linearGradient id="paint10_linear_1302_13" x1="929.336" y1="449.877" x2="1036.59" y2="446.52" gradientUnits="userSpaceOnUse">
<stop stop-color="#73331A"/>
<stop offset="1" stop-opacity="0"/>
</linearGradient>
<linearGradient id="paint11_linear_1302_13" x1="1018.66" y1="264.503" x2="1125.92" y2="261.147" gradientUnits="userSpaceOnUse">
<stop stop-color="#331470"/>
<stop offset="1" stop-opacity="0"/>
</linearGradient>
<linearGradient id="paint12_linear_1302_13" x1="625.438" y1="270.29" x2="696.316" y2="351.084" gradientUnits="userSpaceOnUse">
<stop stop-color="#653ECF"/>
<stop offset="1" stop-color="#421EA5"/>
</linearGradient>
<clipPath id="clip0_1302_13">
<rect width="1200" height="628" fill="white"/>
</clipPath>
</defs>
</svg>
